<svg xmlns="http://www.w3.org/2000/svg" viewBox="0 0 512 512">
  <path d="M256 34.347c-16.845 40.158-27.297 66.125-44.59 105.18 12.95 13.503 29.058 29.632 55.988 49.886-30.851-17.44-50.122-31.582-63.617-44.453C178.1 199.727 143.473 281.107 68 477.653c55.743-35.186 99.387-58.263 140.322-68.47-3.472-7.152-5.478-15.156-5.478-23.685 0-29.57 23.974-53.544 53.544-53.544 29.57 0 53.544 23.974 53.544 53.544 0 7.68-1.618 14.984-4.524 21.585 41.357 10.06 85.375 33.24 142.592 69.57C395.472 367.27 350.672 261.573 315.417 181.04c-14.377 14.33-36.175 30.663-72.34 50.7 31.914-22.155 51.523-39.095 64.14-54.18C290.135 137.47 278.57 100.082 256 34.347z" fill="#1793D1"/>
</svg>
